<svg xmlns="http://www.w3.org/2000/svg" width="263" height="52" fill="#FFF" class="w-[159px] h-9 md:w-[194.33px] lg:block lg:w-40 lg:h-full md:h-[44px]"><path fill="#FF00AF" d="M31.347 45.34V6.947c8.197 2.445 14.236 10.066 14.236 19.125s-6.04 16.68-14.236 19.268ZM25.595.476v21.57l-3.307-3.308-.431-8.196L25.307.476c-2.156 0-4.313.288-6.326.863l-1.582 4.89-4.601-2.301c-1.87 1.15-3.595 2.3-5.177 3.882l8.628 4.314.287 4.889-4.889-.288-4.313-8.627C5.896 9.679 4.6 11.26 3.45 13.13l2.3 4.602-4.888 1.582A23.171 23.171 0 0 0 0 25.64l10.21-3.45 8.196.43 3.307 3.308-3.307 3.307-8.197.432L0 26.359c0 2.157.288 4.314.863 6.327l4.889 1.582-2.3 4.602c1.006 1.869 2.3 3.595 3.882 5.032l4.313-8.627 4.89-.288-.288 4.89L7.62 44.19c1.582 1.438 3.164 2.732 5.033 3.882l4.601-2.3 1.582 4.889a23.17 23.17 0 0 0 6.327.862l-3.451-10.209.431-8.196 3.308-3.308v21.713c14.235 0 25.739-11.503 25.739-25.739C51.19 11.55 39.83.476 25.595.476Z"/><path fill="#fff" fill-rule="evenodd" d="M130.278 9.104c-2.589 0-4.602.72-6.04 2.157-1.438 1.438-2.157 3.307-2.157 5.752v2.157h-4.17v3.595h4.17v20.85h4.458V22.908h7.046V19.17h-7.19v-2.157c0-1.438.288-2.445 1.007-3.164.719-.719 1.725-1.15 3.02-1.15.575 0 1.294.144 1.869.288.575.143 1.15.431 1.582.862l1.438-3.307a6.875 6.875 0 0 0-2.301-1.15c-.863-.144-1.726-.288-2.732-.288ZM83.113 22.908c-.863-1.006-1.87-2.013-3.02-2.588-1.725-.863-3.594-1.438-5.608-1.438-2.444 0-4.457.575-6.326 1.582-1.87 1.007-3.308 2.444-4.458 4.314-1.15 1.87-1.582 4.026-1.582 6.614 0 2.445.575 4.746 1.582 6.615a13.219 13.219 0 0 0 4.458 4.458 13.311 13.311 0 0 0 6.326 1.581c2.157 0 4.027-.431 5.752-1.438 1.15-.719 2.157-1.581 3.02-2.732v3.883h4.314V9.392h-4.458v13.516Zm-1.006 13.086a7.625 7.625 0 0 1-3.02 3.02c-1.294.718-2.588 1.006-4.17 1.006-1.582 0-3.02-.288-4.17-1.007-1.294-.719-2.157-1.725-3.02-3.02-.719-1.293-1.15-2.875-1.15-4.6 0-1.726.431-3.308 1.15-4.602a7.626 7.626 0 0 1 3.02-3.02c1.294-.719 2.588-1.006 4.17-1.006 1.582 0 2.876.287 4.17 1.006a7.625 7.625 0 0 1 3.02 3.02c.719 1.294 1.15 2.732 1.15 4.601 0 1.87-.431 3.308-1.15 4.602Zm28.902-15.386c-1.869-1.007-3.882-1.582-6.327-1.582-2.3 0-4.457.575-6.327 1.582-1.869 1.006-3.307 2.588-4.457 4.457-1.007 1.87-1.582 4.027-1.582 6.471 0 2.445.575 4.602 1.582 6.47 1.15 1.87 2.588 3.308 4.601 4.459 2.013 1.15 4.314 1.581 6.902 1.581 2.013 0 3.883-.287 5.465-1.006 1.581-.72 3.019-1.726 4.17-3.02l-2.445-2.876c-.863 1.007-1.869 1.726-3.163 2.157a11.195 11.195 0 0 1-4.027.719c-1.725 0-3.307-.288-4.601-1.007-1.294-.719-2.445-1.725-3.164-3.02-.575-1.006-.862-2.012-1.006-3.163h19.843v-1.438c0-2.588-.575-4.745-1.581-6.614-.575-1.726-2.013-3.164-3.883-4.17Zm-10.353 3.163c1.15-.719 2.588-1.006 4.17-1.006 1.582 0 3.02.287 4.17 1.006 1.151.72 2.157 1.726 2.732 2.876.575 1.007.863 2.013.863 3.164H96.774c.144-1.15.431-2.157 1.006-3.02.72-1.294 1.582-2.3 2.876-3.02Zm37.243-4.601h4.457v24.445h-4.457V19.17Zm22.288 3.738c-1.582 0-3.02.288-4.314 1.007a7.627 7.627 0 0 0-3.02 3.02c-.718 1.294-1.15 2.876-1.15 4.601 0 1.726.432 3.307 1.15 4.602a7.628 7.628 0 0 0 3.02 3.02c1.294.718 2.732 1.006 4.314 1.006a8.393 8.393 0 0 0 3.739-.863c1.15-.431 2.013-1.438 2.876-2.588l3.307 2.157c-1.007 1.725-2.301 3.02-4.026 3.882-1.726.863-3.739 1.294-5.896 1.294-2.445 0-4.601-.431-6.615-1.581-2.013-1.15-3.451-2.589-4.601-4.458-1.15-1.87-1.726-4.026-1.726-6.47 0-2.445.576-4.602 1.726-6.472 1.15-1.869 2.588-3.45 4.601-4.457 1.87-1.007 4.17-1.582 6.615-1.582 2.157 0 4.17.431 5.896 1.294 1.725.863 3.019 2.157 4.026 3.883l-3.307 2.157a7.104 7.104 0 0 0-2.876-2.589 8.393 8.393 0 0 0-3.739-.863Zm32.21-2.732a12.572 12.572 0 0 0-5.32-1.15c-2.157 0-4.17.431-5.896 1.294-1.15.575-2.013 1.438-2.876 2.445V9.392h-4.458v34.367h4.458V31.105c0-1.726.288-3.308 1.007-4.458a6.266 6.266 0 0 1 2.732-2.732c1.15-.575 2.588-.863 4.17-.863 2.157 0 3.738.575 4.889 1.87 1.15 1.15 1.725 3.02 1.725 5.32v13.66h4.458V29.811c0-2.445-.431-4.458-1.294-5.896-1.007-1.87-2.157-3.02-3.595-3.739Zm14.379-.287c1.87-.575 3.595-.863 5.608-.863 3.451 0 6.04.719 7.478 2.445 1.869 1.581 2.732 4.17 2.732 7.477v14.81h-4.17v-3.307c-.575 1.007-1.438 1.726-2.445 2.301-1.438.863-3.307 1.294-5.608 1.294-1.725 0-3.307-.287-4.745-.863-1.438-.575-2.444-1.438-3.163-2.588-.719-1.15-1.151-2.3-1.151-3.739 0-1.294.432-2.444 1.007-3.594.719-1.007 1.725-1.87 3.163-2.589 1.438-.719 3.308-1.006 5.752-1.006h7.046v-.863c0-1.87-.431-3.307-1.582-4.314-1.006-1.006-2.732-1.582-4.889-1.582-1.438 0-2.876.288-4.314.72-1.294.43-2.444 1.006-3.451 1.869l-1.869-3.308c1.294-1.006 2.876-1.725 4.601-2.3Zm4.746 20.706c1.581 0 3.019-.431 4.313-1.15 1.151-.72 2.014-1.87 2.733-3.307v-3.452h-6.903c-2.157 0-3.738.432-4.457 1.15-.719.72-1.151 1.726-1.151 2.733 0 1.15.432 2.157 1.438 2.876 1.007.719 2.301 1.15 4.027 1.15Zm22-21.425h-4.457v24.445h4.457V19.17Zm24.589 1.006c1.582.72 2.732 1.87 3.595 3.451.863 1.582 1.294 3.595 1.294 6.04v14.092h-4.458v-13.66c0-2.302-.575-4.17-1.725-5.321-1.15-1.294-2.732-1.87-4.889-1.87-1.582 0-3.02.288-4.17.863a6.266 6.266 0 0 0-2.732 2.732c-.719 1.15-1.007 2.732-1.007 4.458v12.654h-4.457V19.17h4.313v3.738c.719-1.006 1.726-1.869 3.02-2.588 1.726-.863 3.739-1.294 5.896-1.294 2.013 0 3.738.431 5.32 1.15Z" clip-rule="evenodd"/></svg>